<?xml version="1.0" encoding="UTF-8" standalone="no"?>
<!-- Created with Inkscape (http://www.inkscape.org/) -->

<svg
   xmlns:dc="http://purl.org/dc/elements/1.1/"
   xmlns:cc="http://creativecommons.org/ns#"
   xmlns:rdf="http://www.w3.org/1999/02/22-rdf-syntax-ns#"
   xmlns:svg="http://www.w3.org/2000/svg"
   xmlns="http://www.w3.org/2000/svg"
   xmlns:xlink="http://www.w3.org/1999/xlink"
   xmlns:sodipodi="http://sodipodi.sourceforge.net/DTD/sodipodi-0.dtd"
   xmlns:inkscape="http://www.inkscape.org/namespaces/inkscape"
   width="1024"
   height="2048"
   viewBox="0 0 270.93334 541.86668"
   version="1.1"
   id="svg5693"
   inkscape:version="0.92.2 (5c3e80d, 2017-08-06)"
   sodipodi:docname="dungeonDrawing.svg">
  <defs
     id="defs5687" />
  <sodipodi:namedview
     id="base"
     pagecolor="#ffffff"
     bordercolor="#666666"
     borderopacity="1.0"
     inkscape:pageopacity="0.0"
     inkscape:pageshadow="2"
     inkscape:zoom="0.24748737"
     inkscape:cx="-161.56466"
     inkscape:cy="762.53811"
     inkscape:document-units="mm"
     inkscape:current-layer="layer1"
     showgrid="false"
     units="px"
     inkscape:snap-nodes="true"
     inkscape:snap-global="true"
     inkscape:window-width="1873"
     inkscape:window-height="1025"
     inkscape:window-x="47"
     inkscape:window-y="27"
     inkscape:window-maximized="1">
    <inkscape:grid
       type="xygrid"
       id="grid6789"
       spacingx="67.733333"
       spacingy="67.733333"
       empspacing="2"
       empcolor="#ff3fea"
       empopacity="0.25098039" />
    <inkscape:grid
       type="xygrid"
       id="grid6791"
       color="#ffa53f"
       opacity="0.25882353"
       empcolor="#ff483f"
       empopacity="0.25098039"
       spacingx="5.2916668"
       spacingy="5.2916668"
       empspacing="5"
       visible="true" />
  </sodipodi:namedview>
  <metadata
     id="metadata5690">
    <rdf:RDF>
      <cc:Work
         rdf:about="">
        <dc:format>image/svg+xml</dc:format>
        <dc:type
           rdf:resource="http://purl.org/dc/dcmitype/StillImage" />
        <dc:title></dc:title>
      </cc:Work>
    </rdf:RDF>
  </metadata>
  <g
     inkscape:groupmode="layer"
     id="layer2"
     inkscape:label="bg"
     transform="translate(0,406.4)"
     style="display:inline">
    <g
       id="g2448"
       transform="matrix(2,0,0,2,5.2000021e-6,-156.63335)"
       style="fill:#e6e6e6;stroke:#b3b3b3;stroke-width:0.13229167;stroke-miterlimit:4;stroke-dasharray:none">
      <g
         inkscape:tile-y0="122.2375"
         inkscape:tile-x0="-1.5999999e-06"
         inkscape:tile-h="2.6458306"
         inkscape:tile-w="67.733334"
         inkscape:tile-cy="123.56042"
         inkscape:tile-cx="33.866666"
         id="g976"
         style="fill:#e6e6e6;stroke:#b3b3b3;stroke-width:0.13229167;stroke-miterlimit:4;stroke-dasharray:none">
        <path
           style="fill:#e6e6e6;fill-opacity:1;stroke:#b3b3b3;stroke-width:0.13229167;stroke-linecap:butt;stroke-linejoin:miter;stroke-miterlimit:4;stroke-dasharray:none;stroke-dashoffset:0;stroke-opacity:1"
           d="M -1.0999999e-6,124.88333 H 67.733331"
           id="path887"
           inkscape:connector-curvature="0" />
        <path
           style="fill:#e6e6e6;fill-opacity:1;stroke:#b3b3b3;stroke-width:0.13229167;stroke-linecap:butt;stroke-linejoin:miter;stroke-miterlimit:4;stroke-dasharray:none;stroke-dashoffset:0;stroke-opacity:1"
           d="M 2.6458322,124.88333 V 122.2375"
           id="path889"
           inkscape:connector-curvature="0" />
        <path
           inkscape:connector-curvature="0"
           id="path891"
           d="M 5.2916657,124.88333 V 122.2375"
           style="fill:#e6e6e6;fill-opacity:1;stroke:#b3b3b3;stroke-width:0.13229167;stroke-linecap:butt;stroke-linejoin:miter;stroke-miterlimit:4;stroke-dasharray:none;stroke-dashoffset:0;stroke-opacity:1" />
        <path
           style="fill:#e6e6e6;fill-opacity:1;stroke:#b3b3b3;stroke-width:0.13229167;stroke-linecap:butt;stroke-linejoin:miter;stroke-miterlimit:4;stroke-dasharray:none;stroke-dashoffset:0;stroke-opacity:1"
           d="M 10.583332,124.88333 V 122.2375"
           id="path893"
           inkscape:connector-curvature="0" />
        <path
           inkscape:connector-curvature="0"
           id="path895"
           d="M 7.9374988,124.88333 V 122.2375"
           style="fill:#e6e6e6;fill-opacity:1;stroke:#b3b3b3;stroke-width:0.13229167;stroke-linecap:butt;stroke-linejoin:miter;stroke-miterlimit:4;stroke-dasharray:none;stroke-dashoffset:0;stroke-opacity:1" />
        <path
           inkscape:connector-curvature="0"
           id="path897"
           d="M -1.0999999e-6,124.88333 V 122.2375"
           style="fill:#e6e6e6;fill-opacity:1;stroke:#b3b3b3;stroke-width:0.13229167;stroke-linecap:butt;stroke-linejoin:miter;stroke-miterlimit:4;stroke-dasharray:none;stroke-dashoffset:0;stroke-opacity:1" />
        <path
           inkscape:connector-curvature="0"
           id="path899"
           d="M 15.874999,124.88333 V 122.2375"
           style="fill:#e6e6e6;fill-opacity:1;stroke:#b3b3b3;stroke-width:0.13229167;stroke-linecap:butt;stroke-linejoin:miter;stroke-miterlimit:4;stroke-dasharray:none;stroke-dashoffset:0;stroke-opacity:1" />
        <path
           style="fill:#e6e6e6;fill-opacity:1;stroke:#b3b3b3;stroke-width:0.13229167;stroke-linecap:butt;stroke-linejoin:miter;stroke-miterlimit:4;stroke-dasharray:none;stroke-dashoffset:0;stroke-opacity:1"
           d="M 18.520833,124.88333 V 122.2375"
           id="path901"
           inkscape:connector-curvature="0" />
        <path
           inkscape:connector-curvature="0"
           id="path903"
           d="M 23.812499,124.88333 V 122.2375"
           style="fill:#e6e6e6;fill-opacity:1;stroke:#b3b3b3;stroke-width:0.13229167;stroke-linecap:butt;stroke-linejoin:miter;stroke-miterlimit:4;stroke-dasharray:none;stroke-dashoffset:0;stroke-opacity:1" />
        <path
           style="fill:#e6e6e6;fill-opacity:1;stroke:#b3b3b3;stroke-width:0.13229167;stroke-linecap:butt;stroke-linejoin:miter;stroke-miterlimit:4;stroke-dasharray:none;stroke-dashoffset:0;stroke-opacity:1"
           d="M 21.166666,124.88333 V 122.2375"
           id="path905"
           inkscape:connector-curvature="0" />
        <path
           style="fill:#e6e6e6;fill-opacity:1;stroke:#b3b3b3;stroke-width:0.13229167;stroke-linecap:butt;stroke-linejoin:miter;stroke-miterlimit:4;stroke-dasharray:none;stroke-dashoffset:0;stroke-opacity:1"
           d="M 13.229166,124.88333 V 122.2375"
           id="path907"
           inkscape:connector-curvature="0" />
        <path
           style="fill:#e6e6e6;fill-opacity:1;stroke:#b3b3b3;stroke-width:0.13229167;stroke-linecap:butt;stroke-linejoin:miter;stroke-miterlimit:4;stroke-dasharray:none;stroke-dashoffset:0;stroke-opacity:1"
           d="M 29.104165,124.88333 V 122.2375"
           id="path909"
           inkscape:connector-curvature="0" />
        <path
           inkscape:connector-curvature="0"
           id="path911"
           d="M 31.749999,124.88333 V 122.2375"
           style="fill:#e6e6e6;fill-opacity:1;stroke:#b3b3b3;stroke-width:0.13229167;stroke-linecap:butt;stroke-linejoin:miter;stroke-miterlimit:4;stroke-dasharray:none;stroke-dashoffset:0;stroke-opacity:1" />
        <path
           style="fill:#e6e6e6;fill-opacity:1;stroke:#b3b3b3;stroke-width:0.13229167;stroke-linecap:butt;stroke-linejoin:miter;stroke-miterlimit:4;stroke-dasharray:none;stroke-dashoffset:0;stroke-opacity:1"
           d="M 37.041665,124.88333 V 122.2375"
           id="path913"
           inkscape:connector-curvature="0" />
        <path
           inkscape:connector-curvature="0"
           id="path915"
           d="M 34.395832,124.88333 V 122.2375"
           style="fill:#e6e6e6;fill-opacity:1;stroke:#b3b3b3;stroke-width:0.13229167;stroke-linecap:butt;stroke-linejoin:miter;stroke-miterlimit:4;stroke-dasharray:none;stroke-dashoffset:0;stroke-opacity:1" />
        <path
           inkscape:connector-curvature="0"
           id="path917"
           d="M 26.458332,124.88333 V 122.2375"
           style="fill:#e6e6e6;fill-opacity:1;stroke:#b3b3b3;stroke-width:0.13229167;stroke-linecap:butt;stroke-linejoin:miter;stroke-miterlimit:4;stroke-dasharray:none;stroke-dashoffset:0;stroke-opacity:1" />
        <path
           inkscape:connector-curvature="0"
           id="path919"
           d="M 42.333332,124.88333 V 122.2375"
           style="fill:#e6e6e6;fill-opacity:1;stroke:#b3b3b3;stroke-width:0.13229167;stroke-linecap:butt;stroke-linejoin:miter;stroke-miterlimit:4;stroke-dasharray:none;stroke-dashoffset:0;stroke-opacity:1" />
        <path
           style="fill:#e6e6e6;fill-opacity:1;stroke:#b3b3b3;stroke-width:0.13229167;stroke-linecap:butt;stroke-linejoin:miter;stroke-miterlimit:4;stroke-dasharray:none;stroke-dashoffset:0;stroke-opacity:1"
           d="M 44.979165,124.88333 V 122.2375"
           id="path921"
           inkscape:connector-curvature="0" />
        <path
           inkscape:connector-curvature="0"
           id="path923"
           d="M 50.270832,124.88333 V 122.2375"
           style="fill:#e6e6e6;fill-opacity:1;stroke:#b3b3b3;stroke-width:0.13229167;stroke-linecap:butt;stroke-linejoin:miter;stroke-miterlimit:4;stroke-dasharray:none;stroke-dashoffset:0;stroke-opacity:1" />
        <path
           style="fill:#e6e6e6;fill-opacity:1;stroke:#b3b3b3;stroke-width:0.13229167;stroke-linecap:butt;stroke-linejoin:miter;stroke-miterlimit:4;stroke-dasharray:none;stroke-dashoffset:0;stroke-opacity:1"
           d="M 47.624999,124.88333 V 122.2375"
           id="path925"
           inkscape:connector-curvature="0" />
        <path
           style="fill:#e6e6e6;fill-opacity:1;stroke:#b3b3b3;stroke-width:0.13229167;stroke-linecap:butt;stroke-linejoin:miter;stroke-miterlimit:4;stroke-dasharray:none;stroke-dashoffset:0;stroke-opacity:1"
           d="M 39.687499,124.88333 V 122.2375"
           id="path927"
           inkscape:connector-curvature="0" />
        <path
           style="fill:#e6e6e6;fill-opacity:1;stroke:#b3b3b3;stroke-width:0.13229167;stroke-linecap:butt;stroke-linejoin:miter;stroke-miterlimit:4;stroke-dasharray:none;stroke-dashoffset:0;stroke-opacity:1"
           d="M 55.562499,124.88333 V 122.2375"
           id="path929"
           inkscape:connector-curvature="0" />
        <path
           inkscape:connector-curvature="0"
           id="path931"
           d="M 58.208333,124.88333 V 122.2375"
           style="fill:#e6e6e6;fill-opacity:1;stroke:#b3b3b3;stroke-width:0.13229167;stroke-linecap:butt;stroke-linejoin:miter;stroke-miterlimit:4;stroke-dasharray:none;stroke-dashoffset:0;stroke-opacity:1" />
        <path
           style="fill:#e6e6e6;fill-opacity:1;stroke:#b3b3b3;stroke-width:0.13229167;stroke-linecap:butt;stroke-linejoin:miter;stroke-miterlimit:4;stroke-dasharray:none;stroke-dashoffset:0;stroke-opacity:1"
           d="M 63.499999,124.88333 V 122.2375"
           id="path933"
           inkscape:connector-curvature="0" />
        <path
           inkscape:connector-curvature="0"
           id="path935"
           d="M 60.854166,124.88333 V 122.2375"
           style="fill:#e6e6e6;fill-opacity:1;stroke:#b3b3b3;stroke-width:0.13229167;stroke-linecap:butt;stroke-linejoin:miter;stroke-miterlimit:4;stroke-dasharray:none;stroke-dashoffset:0;stroke-opacity:1" />
        <path
           inkscape:connector-curvature="0"
           id="path937"
           d="M 52.916666,124.88333 V 122.2375"
           style="fill:#e6e6e6;fill-opacity:1;stroke:#b3b3b3;stroke-width:0.13229167;stroke-linecap:butt;stroke-linejoin:miter;stroke-miterlimit:4;stroke-dasharray:none;stroke-dashoffset:0;stroke-opacity:1" />
        <path
           style="fill:#e6e6e6;fill-opacity:1;stroke:#b3b3b3;stroke-width:0.13229167;stroke-linecap:butt;stroke-linejoin:miter;stroke-miterlimit:4;stroke-dasharray:none;stroke-dashoffset:0;stroke-opacity:1"
           d="M 66.145832,124.88333 V 122.2375"
           id="path947"
           inkscape:connector-curvature="0" />
      </g>
      <use
         height="100%"
         width="100%"
         id="use2140"
         transform="translate(0,-2.6458306)"
         xlink:href="#g976"
         inkscape:tiled-clone-of="#g976"
         y="0"
         x="0"
         style="fill:#e6e6e6;stroke:#b3b3b3;stroke-width:0.13229167;stroke-miterlimit:4;stroke-dasharray:none" />
      <use
         height="100%"
         width="100%"
         id="use2142"
         transform="translate(0,-5.2916611)"
         xlink:href="#g976"
         inkscape:tiled-clone-of="#g976"
         y="0"
         x="0"
         style="fill:#e6e6e6;stroke:#b3b3b3;stroke-width:0.13229167;stroke-miterlimit:4;stroke-dasharray:none" />
      <use
         height="100%"
         width="100%"
         id="use2144"
         transform="translate(0,-7.9374917)"
         xlink:href="#g976"
         inkscape:tiled-clone-of="#g976"
         y="0"
         x="0"
         style="fill:#e6e6e6;stroke:#b3b3b3;stroke-width:0.13229167;stroke-miterlimit:4;stroke-dasharray:none" />
      <use
         height="100%"
         width="100%"
         id="use2146"
         transform="translate(0,-10.583322)"
         xlink:href="#g976"
         inkscape:tiled-clone-of="#g976"
         y="0"
         x="0"
         style="fill:#e6e6e6;stroke:#b3b3b3;stroke-width:0.13229167;stroke-miterlimit:4;stroke-dasharray:none" />
      <use
         height="100%"
         width="100%"
         id="use2148"
         transform="translate(0,-13.229153)"
         xlink:href="#g976"
         inkscape:tiled-clone-of="#g976"
         y="0"
         x="0"
         style="fill:#e6e6e6;stroke:#b3b3b3;stroke-width:0.13229167;stroke-miterlimit:4;stroke-dasharray:none" />
      <use
         height="100%"
         width="100%"
         id="use2150"
         transform="translate(0,-15.874983)"
         xlink:href="#g976"
         inkscape:tiled-clone-of="#g976"
         y="0"
         x="0"
         style="fill:#e6e6e6;stroke:#b3b3b3;stroke-width:0.13229167;stroke-miterlimit:4;stroke-dasharray:none" />
      <use
         height="100%"
         width="100%"
         id="use2152"
         transform="translate(0,-18.520814)"
         xlink:href="#g976"
         inkscape:tiled-clone-of="#g976"
         y="0"
         x="0"
         style="fill:#e6e6e6;stroke:#b3b3b3;stroke-width:0.13229167;stroke-miterlimit:4;stroke-dasharray:none" />
      <use
         height="100%"
         width="100%"
         id="use2154"
         transform="translate(0,-21.166645)"
         xlink:href="#g976"
         inkscape:tiled-clone-of="#g976"
         y="0"
         x="0"
         style="fill:#e6e6e6;stroke:#b3b3b3;stroke-width:0.13229167;stroke-miterlimit:4;stroke-dasharray:none" />
      <use
         height="100%"
         width="100%"
         id="use2156"
         transform="translate(0,-23.812475)"
         xlink:href="#g976"
         inkscape:tiled-clone-of="#g976"
         y="0"
         x="0"
         style="fill:#e6e6e6;stroke:#b3b3b3;stroke-width:0.13229167;stroke-miterlimit:4;stroke-dasharray:none" />
      <use
         height="100%"
         width="100%"
         id="use2158"
         transform="translate(0,-26.458306)"
         xlink:href="#g976"
         inkscape:tiled-clone-of="#g976"
         y="0"
         x="0"
         style="fill:#e6e6e6;stroke:#b3b3b3;stroke-width:0.13229167;stroke-miterlimit:4;stroke-dasharray:none" />
      <use
         height="100%"
         width="100%"
         id="use2160"
         transform="translate(0,-29.104136)"
         xlink:href="#g976"
         inkscape:tiled-clone-of="#g976"
         y="0"
         x="0"
         style="fill:#e6e6e6;stroke:#b3b3b3;stroke-width:0.13229167;stroke-miterlimit:4;stroke-dasharray:none" />
      <use
         height="100%"
         width="100%"
         id="use2162"
         transform="translate(0,-31.749967)"
         xlink:href="#g976"
         inkscape:tiled-clone-of="#g976"
         y="0"
         x="0"
         style="fill:#e6e6e6;stroke:#b3b3b3;stroke-width:0.13229167;stroke-miterlimit:4;stroke-dasharray:none" />
      <use
         height="100%"
         width="100%"
         id="use2164"
         transform="translate(0,-34.395797)"
         xlink:href="#g976"
         inkscape:tiled-clone-of="#g976"
         y="0"
         x="0"
         style="fill:#e6e6e6;stroke:#b3b3b3;stroke-width:0.13229167;stroke-miterlimit:4;stroke-dasharray:none" />
      <use
         height="100%"
         width="100%"
         id="use2166"
         transform="translate(0,-37.041628)"
         xlink:href="#g976"
         inkscape:tiled-clone-of="#g976"
         y="0"
         x="0"
         style="fill:#e6e6e6;stroke:#b3b3b3;stroke-width:0.13229167;stroke-miterlimit:4;stroke-dasharray:none" />
      <use
         height="100%"
         width="100%"
         id="use2168"
         transform="translate(0,-39.687458)"
         xlink:href="#g976"
         inkscape:tiled-clone-of="#g976"
         y="0"
         x="0"
         style="fill:#e6e6e6;stroke:#b3b3b3;stroke-width:0.13229167;stroke-miterlimit:4;stroke-dasharray:none" />
      <use
         height="100%"
         width="100%"
         id="use2170"
         transform="translate(0,-42.333289)"
         xlink:href="#g976"
         inkscape:tiled-clone-of="#g976"
         y="0"
         x="0"
         style="fill:#e6e6e6;stroke:#b3b3b3;stroke-width:0.13229167;stroke-miterlimit:4;stroke-dasharray:none" />
      <use
         height="100%"
         width="100%"
         id="use2172"
         transform="translate(0,-44.97912)"
         xlink:href="#g976"
         inkscape:tiled-clone-of="#g976"
         y="0"
         x="0"
         style="fill:#e6e6e6;stroke:#b3b3b3;stroke-width:0.13229167;stroke-miterlimit:4;stroke-dasharray:none" />
      <use
         height="100%"
         width="100%"
         id="use2174"
         transform="translate(0,-47.62495)"
         xlink:href="#g976"
         inkscape:tiled-clone-of="#g976"
         y="0"
         x="0"
         style="fill:#e6e6e6;stroke:#b3b3b3;stroke-width:0.13229167;stroke-miterlimit:4;stroke-dasharray:none" />
      <use
         height="100%"
         width="100%"
         id="use2176"
         transform="translate(0,-50.270781)"
         xlink:href="#g976"
         inkscape:tiled-clone-of="#g976"
         y="0"
         x="0"
         style="fill:#e6e6e6;stroke:#b3b3b3;stroke-width:0.13229167;stroke-miterlimit:4;stroke-dasharray:none" />
      <use
         height="100%"
         width="100%"
         id="use2178"
         transform="translate(0,-52.916611)"
         xlink:href="#g976"
         inkscape:tiled-clone-of="#g976"
         y="0"
         x="0"
         style="fill:#e6e6e6;stroke:#b3b3b3;stroke-width:0.13229167;stroke-miterlimit:4;stroke-dasharray:none" />
      <use
         height="100%"
         width="100%"
         id="use2180"
         transform="translate(0,-55.562442)"
         xlink:href="#g976"
         inkscape:tiled-clone-of="#g976"
         y="0"
         x="0"
         style="fill:#e6e6e6;stroke:#b3b3b3;stroke-width:0.13229167;stroke-miterlimit:4;stroke-dasharray:none" />
      <use
         height="100%"
         width="100%"
         id="use2182"
         transform="translate(0,-58.208272)"
         xlink:href="#g976"
         inkscape:tiled-clone-of="#g976"
         y="0"
         x="0"
         style="fill:#e6e6e6;stroke:#b3b3b3;stroke-width:0.13229167;stroke-miterlimit:4;stroke-dasharray:none" />
      <use
         height="100%"
         width="100%"
         id="use2184"
         transform="translate(0,-60.854103)"
         xlink:href="#g976"
         inkscape:tiled-clone-of="#g976"
         y="0"
         x="0"
         style="fill:#e6e6e6;stroke:#b3b3b3;stroke-width:0.13229167;stroke-miterlimit:4;stroke-dasharray:none" />
      <use
         height="100%"
         width="100%"
         id="use2186"
         transform="translate(0,-63.499934)"
         xlink:href="#g976"
         inkscape:tiled-clone-of="#g976"
         y="0"
         x="0"
         style="fill:#e6e6e6;stroke:#b3b3b3;stroke-width:0.13229167;stroke-miterlimit:4;stroke-dasharray:none" />
      <use
         height="100%"
         width="100%"
         id="use2188"
         transform="translate(0,-66.145764)"
         xlink:href="#g976"
         inkscape:tiled-clone-of="#g976"
         y="0"
         x="0"
         style="fill:#e6e6e6;stroke:#b3b3b3;stroke-width:0.13229167;stroke-miterlimit:4;stroke-dasharray:none" />
      <use
         height="100%"
         width="100%"
         id="use2190"
         transform="translate(0,-68.791595)"
         xlink:href="#g976"
         inkscape:tiled-clone-of="#g976"
         y="0"
         x="0"
         style="fill:#e6e6e6;stroke:#b3b3b3;stroke-width:0.13229167;stroke-miterlimit:4;stroke-dasharray:none" />
      <use
         height="100%"
         width="100%"
         id="use2192"
         transform="translate(0,-71.437425)"
         xlink:href="#g976"
         inkscape:tiled-clone-of="#g976"
         y="0"
         x="0"
         style="fill:#e6e6e6;stroke:#b3b3b3;stroke-width:0.13229167;stroke-miterlimit:4;stroke-dasharray:none" />
      <use
         height="100%"
         width="100%"
         id="use2194"
         transform="translate(0,-74.083256)"
         xlink:href="#g976"
         inkscape:tiled-clone-of="#g976"
         y="0"
         x="0"
         style="fill:#e6e6e6;stroke:#b3b3b3;stroke-width:0.13229167;stroke-miterlimit:4;stroke-dasharray:none" />
      <use
         height="100%"
         width="100%"
         id="use2196"
         transform="translate(0,-76.729086)"
         xlink:href="#g976"
         inkscape:tiled-clone-of="#g976"
         y="0"
         x="0"
         style="fill:#e6e6e6;stroke:#b3b3b3;stroke-width:0.13229167;stroke-miterlimit:4;stroke-dasharray:none" />
      <use
         height="100%"
         width="100%"
         id="use2198"
         transform="translate(0,-79.374917)"
         xlink:href="#g976"
         inkscape:tiled-clone-of="#g976"
         y="0"
         x="0"
         style="fill:#e6e6e6;stroke:#b3b3b3;stroke-width:0.13229167;stroke-miterlimit:4;stroke-dasharray:none" />
      <use
         height="100%"
         width="100%"
         id="use2200"
         transform="translate(0,-82.020748)"
         xlink:href="#g976"
         inkscape:tiled-clone-of="#g976"
         y="0"
         x="0"
         style="fill:#e6e6e6;stroke:#b3b3b3;stroke-width:0.13229167;stroke-miterlimit:4;stroke-dasharray:none" />
      <use
         height="100%"
         width="100%"
         id="use2202"
         transform="translate(0,-84.666578)"
         xlink:href="#g976"
         inkscape:tiled-clone-of="#g976"
         y="0"
         x="0"
         style="fill:#e6e6e6;stroke:#b3b3b3;stroke-width:0.13229167;stroke-miterlimit:4;stroke-dasharray:none" />
      <use
         height="100%"
         width="100%"
         id="use2204"
         transform="translate(0,-87.312409)"
         xlink:href="#g976"
         inkscape:tiled-clone-of="#g976"
         y="0"
         x="0"
         style="fill:#e6e6e6;stroke:#b3b3b3;stroke-width:0.13229167;stroke-miterlimit:4;stroke-dasharray:none" />
      <use
         height="100%"
         width="100%"
         id="use2206"
         transform="translate(0,-89.958239)"
         xlink:href="#g976"
         inkscape:tiled-clone-of="#g976"
         y="0"
         x="0"
         style="fill:#e6e6e6;stroke:#b3b3b3;stroke-width:0.13229167;stroke-miterlimit:4;stroke-dasharray:none" />
      <use
         height="100%"
         width="100%"
         id="use2208"
         transform="translate(0,-92.60407)"
         xlink:href="#g976"
         inkscape:tiled-clone-of="#g976"
         y="0"
         x="0"
         style="fill:#e6e6e6;stroke:#b3b3b3;stroke-width:0.13229167;stroke-miterlimit:4;stroke-dasharray:none" />
      <use
         height="100%"
         width="100%"
         id="use2210"
         transform="translate(0,-95.2499)"
         xlink:href="#g976"
         inkscape:tiled-clone-of="#g976"
         y="0"
         x="0"
         style="fill:#e6e6e6;stroke:#b3b3b3;stroke-width:0.13229167;stroke-miterlimit:4;stroke-dasharray:none" />
      <use
         height="100%"
         width="100%"
         id="use2212"
         transform="translate(0,-97.895731)"
         xlink:href="#g976"
         inkscape:tiled-clone-of="#g976"
         y="0"
         x="0"
         style="fill:#e6e6e6;stroke:#b3b3b3;stroke-width:0.13229167;stroke-miterlimit:4;stroke-dasharray:none" />
      <use
         height="100%"
         width="100%"
         id="use2214"
         transform="translate(0,-100.54156)"
         xlink:href="#g976"
         inkscape:tiled-clone-of="#g976"
         y="0"
         x="0"
         style="fill:#e6e6e6;stroke:#b3b3b3;stroke-width:0.13229167;stroke-miterlimit:4;stroke-dasharray:none" />
      <use
         height="100%"
         width="100%"
         id="use2216"
         transform="translate(0,-103.18739)"
         xlink:href="#g976"
         inkscape:tiled-clone-of="#g976"
         y="0"
         x="0"
         style="fill:#e6e6e6;stroke:#b3b3b3;stroke-width:0.13229167;stroke-miterlimit:4;stroke-dasharray:none" />
    </g>
  </g>
  <g
     inkscape:label="Layer 1"
     inkscape:groupmode="layer"
     id="layer1"
     transform="translate(0,244.86661)">
    <path
       style="opacity:1;fill:none;stroke:#000000;stroke-width:2.11666679;stroke-linecap:butt;stroke-linejoin:miter;stroke-miterlimit:4;stroke-dasharray:none;stroke-opacity:1"
       d="m 13.229171,150.34548 53.294642,-137.20536 -23.434524,-53.6726 6.803572,-19.2768 55.184529,-23.43452 49.51488,-127.37796 118.68452,44.97915 -49.1369,127.37797 23.8125,51.78272 -8.31548,23.43456 -54.0506,23.81248 -52.91666,137.20536 -52.160717,12.8512 -39.687502,-16.63096 z"
       id="path823"
       inkscape:connector-curvature="0" />
    <path
       style="opacity:1;fill:none;stroke:#000000;stroke-width:1.05833328px;stroke-linecap:butt;stroke-linejoin:miter;stroke-opacity:1"
       d="M 15.497027,149.21156 40.821431,140.14012 46.491075,129.5568 33.261907,101.20856"
       id="path825"
       inkscape:connector-curvature="0" />
    <path
       style="opacity:1;fill:none;stroke:#000000;stroke-width:1.05833328px;stroke-linecap:butt;stroke-linejoin:miter;stroke-opacity:1"
       d="m 131.9137,196.83656 -12.85119,-25.7024 4.91369,-9.82736 27.97023,-13.22916"
       id="path827"
       inkscape:connector-curvature="0" />
    <path
       style="opacity:1;fill:none;stroke:#000000;stroke-width:1.05833328px;stroke-linecap:butt;stroke-linejoin:miter;stroke-opacity:1"
       d="M 35.529765,100.07464 95.627977,92.13716 129.26787,2.93476"
       id="path829"
       inkscape:connector-curvature="0" />
    <path
       style="opacity:1;fill:none;stroke:#000000;stroke-width:1.05833328px;stroke-linecap:butt;stroke-linejoin:miter;stroke-opacity:1"
       d="m 148.16667,10.11632 -34.39583,90.33632 36.28571,49.89284"
       id="path831"
       inkscape:connector-curvature="0" />
    <path
       style="opacity:1;fill:none;stroke:#000000;stroke-width:1.05833328px;stroke-linecap:butt;stroke-linejoin:miter;stroke-opacity:1"
       d="M 45.735121,72.1044 64.633933,80.79788 75.595241,49.8038 57.074409,43.7562"
       id="path833"
       inkscape:connector-curvature="0" />
    <path
       style="opacity:1;fill:none;stroke:#000000;stroke-width:1.05833328px;stroke-linecap:butt;stroke-linejoin:miter;stroke-opacity:1"
       d="M 75.595241,49.42584 86.556553,21.07764"
       id="path835"
       inkscape:connector-curvature="0" />
    <path
       style="opacity:1;fill:none;stroke:#000000;stroke-width:1.05833328px;stroke-linecap:butt;stroke-linejoin:miter;stroke-opacity:1"
       d="m 80.508933,41.11036 19.654757,7.18156 -9.071425,19.65476 -12.851192,6.4256 -10.205356,-4.15776"
       id="path837"
       inkscape:connector-curvature="0" />
    <path
       style="opacity:1;fill:none;stroke:#000000;stroke-width:1.05833328px;stroke-linecap:butt;stroke-linejoin:miter;stroke-opacity:1"
       d="M 87.312505,20.32168 114.52679,32.41692 V 43.7562 l -13.98512,4.53572"
       id="path839"
       inkscape:connector-curvature="0" />
    <path
       style="opacity:1;fill:none;stroke:#000000;stroke-width:1.05833328px;stroke-linecap:butt;stroke-linejoin:miter;stroke-opacity:1"
       d="m 133.04762,50.1818 18.89881,8.31548 15.875,-38.93156"
       id="path841"
       inkscape:connector-curvature="0" />
    <path
       style="opacity:1;fill:none;stroke:#000000;stroke-width:1.05833328px;stroke-linecap:butt;stroke-linejoin:miter;stroke-opacity:1"
       d="m 147.41071,11.25024 70.30358,27.97024 3.77976,6.4256"
       id="path843"
       inkscape:connector-curvature="0" />
    <path
       style="opacity:1;fill:none;stroke:#000000;stroke-width:1.05833328px;stroke-linecap:butt;stroke-linejoin:miter;stroke-opacity:1"
       d="m 159.88393,5.20264 36.28572,13.98508 14.3631,-39.68748 -33.63988,-12.4732 -6.80358,18.52084 32.50596,13.22916"
       id="path845"
       inkscape:connector-curvature="0" />
    <path
       style="opacity:1;fill:none;stroke:#000000;stroke-width:1.05833328px;stroke-linecap:butt;stroke-linejoin:miter;stroke-opacity:1"
       d="m 227.54167,43.37824 -7.18154,-15.11908 -20.03275,-6.0476 8.31549,-19.65476 19.65476,7.55952 -7.9375,18.52084"
       id="path847"
       inkscape:connector-curvature="0" />
    <path
       style="opacity:1;fill:none;stroke:#000000;stroke-width:1.05833328px;stroke-linecap:butt;stroke-linejoin:miter;stroke-opacity:1"
       d="M 228.29763,10.11632 241.14881,2.93476 212.04465,-8.02652 223.38395,-38.6426"
       id="path849"
       inkscape:connector-curvature="0" />
    <path
       style="opacity:1;fill:none;stroke:#000000;stroke-width:1.05833328px;stroke-linecap:butt;stroke-linejoin:miter;stroke-opacity:1"
       d="M 195.4137,31.66096 184.45238,60.38716 156.48215,49.04788 145.14287,78.908"
       id="path851"
       inkscape:connector-curvature="0" />
    <path
       style="opacity:1;fill:none;stroke:#000000;stroke-width:1.05833328px;stroke-linecap:butt;stroke-linejoin:miter;stroke-opacity:1"
       d="M 117.92857,89.11332 184.07441,60.00916"
       id="path853"
       inkscape:connector-curvature="0" />
    <path
       style="opacity:1;fill:none;stroke:#000000;stroke-width:1.05833328px;stroke-linecap:butt;stroke-linejoin:miter;stroke-opacity:1"
       d="M 85.422621,20.69964 66.901789,14.27404"
       id="path855"
       inkscape:connector-curvature="0" />
    <path
       style="opacity:1;fill:none;stroke:#000000;stroke-width:1.05833328px;stroke-linecap:butt;stroke-linejoin:miter;stroke-opacity:1"
       d="m 81.264885,18.4318 12.473212,-28.7262 -24.568452,-9.82736 3.023812,-11.33932 -8.315476,-2.26784 -9.071428,19.2768"
       id="path857"
       inkscape:connector-curvature="0" />
    <path
       style="opacity:1;fill:none;stroke:#000000;stroke-width:1.05833328px;stroke-linecap:butt;stroke-linejoin:miter;stroke-opacity:1"
       d="m 41.577385,-43.17832 21.166668,8.69344"
       id="path859"
       inkscape:connector-curvature="0" />
    <path
       style="opacity:1;fill:none;stroke:#000000;stroke-width:1.05833328px;stroke-linecap:butt;stroke-linejoin:miter;stroke-opacity:1"
       d="M 69.169645,-21.63368 61.988097,-0.845"
       id="path861"
       inkscape:connector-curvature="0" />
    <path
       style="opacity:1;fill:none;stroke:#000000;stroke-width:1.05833328px;stroke-linecap:butt;stroke-linejoin:miter;stroke-opacity:1"
       d="m 72.571433,-31.83904 1.88988,-3.4018 15.875,6.04764 -5.669644,15.875"
       id="path863"
       inkscape:connector-curvature="0" />
    <path
       style="opacity:1;fill:none;stroke:#000000;stroke-width:1.05833328px;stroke-linecap:butt;stroke-linejoin:miter;stroke-opacity:1"
       d="m 129.26787,3.31272 -7.18156,-13.98508 -28.348213,-11.33932 6.803573,-18.5208 29.10417,11.71724 12.09523,-4.91368 7.55953,-17.00892 -16.25298,-5.29168 -14.36309,-32.88392 -12.47322,4.91368"
       id="path865"
       inkscape:connector-curvature="0" />
    <path
       style="opacity:1;fill:none;stroke:#000000;stroke-width:1.05833328px;stroke-linecap:butt;stroke-linejoin:miter;stroke-opacity:1"
       d="m 72.193457,-69.25868 7.9375,19.2768 -20.03274,10.58332 -9.071428,-20.03276"
       id="path867"
       inkscape:connector-curvature="0" />
    <path
       style="opacity:1;fill:none;stroke:#000000;stroke-width:1.05833328px;stroke-linecap:butt;stroke-linejoin:miter;stroke-opacity:1"
       d="m 45.735121,-45.0682 13.98512,5.29168"
       id="path869"
       inkscape:connector-curvature="0" />
    <path
       style="opacity:1;fill:none;stroke:#000000;stroke-width:1.05833328px;stroke-linecap:butt;stroke-linejoin:miter;stroke-opacity:1"
       d="m 96.761909,-31.83904 -20.788692,-7.93748 4.15774,-9.8274 13.98512,-6.4256 6.047613,15.11904"
       id="path871"
       inkscape:connector-curvature="0" />
    <path
       style="opacity:1;fill:none;stroke:#000000;stroke-width:1.05833328px;stroke-linecap:butt;stroke-linejoin:miter;stroke-opacity:1"
       d="m 129.64584,-29.1932 6.80357,-20.03276 -30.2381,-11.71724 -11.339281,5.29168"
       id="path873"
       inkscape:connector-curvature="0" />
    <path
       style="opacity:1;fill:none;stroke:#000000;stroke-width:1.05833328px;stroke-linecap:butt;stroke-linejoin:miter;stroke-opacity:1"
       d="m 75.973217,-63.21108 39.309523,-15.875 12.85119,26.45836"
       id="path875"
       inkscape:connector-curvature="0" />
    <path
       style="opacity:1;fill:none;stroke:#000000;stroke-width:1.05833328px;stroke-linecap:butt;stroke-linejoin:miter;stroke-opacity:1"
       d="m 100.16369,-73.7944 6.80358,13.22916"
       id="path877"
       inkscape:connector-curvature="0" />
    <path
       style="opacity:1;fill:none;stroke:#000000;stroke-width:1.05833328px;stroke-linecap:butt;stroke-linejoin:miter;stroke-opacity:1"
       d="M 86.556553,19.18772 98.273813,-6.8926 122.46429,1.80084 110.36905,30.14904"
       id="path879"
       inkscape:connector-curvature="0" />
    <path
       style="opacity:1;fill:#999999;fill-opacity:1;fill-rule:nonzero;stroke:#e6e6e6;stroke-width:0.53453898;stroke-linecap:butt;stroke-linejoin:round;stroke-miterlimit:4;stroke-dasharray:1.06907803, 1.06907803;stroke-dashoffset:0;stroke-opacity:1"
       d="M 60.70106,201.14305 41.724922,193.1429 28.494549,172.10803 C 15.375076,151.24948 13.947884,148.83798 15.169563,149.59302 c 0.4687,0.28967 16.036116,-4.94109 25.404853,-8.53621 0.470736,-0.18064 2.196417,-2.82759 3.834845,-5.88212 l 2.978959,-5.55368 -6.738278,-14.45929 -6.738278,-14.4593 5.450665,-14.011947 c 2.997867,-7.706572 5.477478,-14.04075 5.510247,-14.075955 0.03277,-0.03524 4.389347,1.945507 9.681283,4.401587 5.291935,2.456079 9.862247,4.468908 10.156241,4.47295 0.294,0.0042 1.336427,-2.265897 2.316512,-5.044328 l 1.781969,-5.05169 2.761615,1.113843 c 1.518883,0.612616 3.62485,1.464326 4.679929,1.892686 1.90219,0.772287 1.975463,0.7502 8.712681,-2.626413 l 6.794357,-3.405251 4.429294,-9.604549 4.429303,-9.604544 5.47669,-1.782906 c 3.01218,-0.980604 5.60312,-1.656471 5.75765,-1.501944 0.15454,0.154538 -3.55847,10.458275 -8.25113,22.8972 l -8.532097,22.616234 -29.87821,3.958119 c -16.433015,2.17696 -29.982444,4.045172 -30.109843,4.151582 -0.127398,0.10641 0.0176,0.442701 0.322205,0.747306 0.382093,0.3821 9.570797,-0.621041 29.63128,-3.234881 15.992596,-2.08379 29.55853,-3.890418 30.146524,-4.014708 0.871574,-0.18424 2.744496,-4.673918 10.138201,-24.302783 4.98803,-13.242243 9.25766,-24.076798 9.48807,-24.076798 0.23042,0 0.42742,-0.541221 0.43778,-1.202716 0.0104,-0.66149 3.34754,-9.982518 7.41594,-20.713388 l 7.3971,-19.510676 -3.65929,-7.2474984 -3.65929,-7.2474986 -13.91289,-5.544285 c -7.65209,-3.04936 -13.911337,-5.681282 -13.909437,-5.84871 0.0048,-0.431742 5.899347,-16.274378 6.147367,-16.522398 0.11267,-0.112665 6.57949,2.375228 14.3707,5.528664 l 14.16585,5.733505 6.36182,-2.527845 6.36182,-2.527839 3.82379,-8.625004 c 2.10308,-4.743741 3.82354,-8.884063 3.82325,-9.200706 -2.9e-4,-0.316642 -3.67265,-1.750462 -8.16081,-3.186276 l -8.16027,-2.61057 -7.17931,-16.458025 c -3.94863,-9.051925 -7.45299,-16.458035 -7.7875,-16.458035 -0.3345,0 -2.97312,0.962257 -5.8636,2.138351 -2.89047,1.1761 -5.29991,2.078133 -5.35431,2.004521 -0.15283,-0.206799 47.53877,-122.685201 47.9181,-123.060081 0.33963,-0.33565 114.74011,42.77819 115.58571,43.56052 0.38294,0.35429 -46.24985,122.363256 -48.55186,127.02994 -1.06788,2.164847 -10.97469,29.0905772 -10.97469,29.8281456 0,0.3384444 6.26605,2.9822245 13.92455,5.8750781 l 13.92455,5.2597208 -5.49584,3.0755272 -5.49585,3.0755272 -3.21695,-1.2211843 c -1.76932,-0.6716554 -6.15714,-2.3505848 -9.75071,-3.7309584 -3.59356,-1.380363 -6.74525,-2.3790486 -7.00374,-2.2192932 -0.91018,0.5625253 -8.82531,20.13748 -8.3321,20.606184 0.26842,0.25509 4.69753,1.712383 9.84247,3.238436 5.14494,1.526048 9.54072,2.950004 9.76838,3.164337 0.22767,0.214334 1.72477,3.119274 3.3269,6.455421 l 2.91294,6.06571 -2.18255,0.977159 c -1.20041,0.537438 -2.2406,0.97716 -2.31155,0.97716 -0.071,0 -0.84114,-1.142577 -1.71154,-2.539058 l -1.58254,-2.539064 -34.17784,-13.557154 c -18.79781,-7.456435 -34.4449,-13.890948 -34.77131,-14.29892 -0.73772,-0.9220619 -1.61686,-0.9552354 -1.95023,-0.07359 -0.13896,0.367496 -7.88261,20.706821 -17.20813,45.198501 -9.32552,24.491674 -16.83638,44.817525 -16.69079,45.168545 0.14558,0.35103 7.97902,11.2221 17.40766,24.15794 9.42863,12.93585 17.14772,23.65294 17.15352,23.81575 0.006,0.16282 -5.47967,2.88577 -12.18996,6.05102 l -12.20051,5.75498 -2.61958,5.32411 -2.61959,5.32412 6.3021,12.61777 c 3.46615,6.93978 6.10611,12.79538 5.86656,13.01244 -0.53914,0.48855 -48.771286,12.32452 -49.880388,12.24044 -0.440991,-0.0334 -9.341067,-3.66084 -19.777942,-8.06093 z M 204.10638,-0.36447025 c 4.05082,-11.20999375 7.27218,-20.47475975 7.15858,-20.58835575 -0.32357,-0.323565 -34.72124,-13.038153 -34.84932,-12.881531 -0.34637,0.423577 -7.27238,19.751844 -7.11923,19.867499 0.10084,0.07615 7.51989,3.107976 16.48678,6.737387 8.9669,3.6294218 16.38295,6.65572592 16.48012,6.72512613 0.32842,0.23456899 -6.46596,18.39262087 -6.88216,18.39262087 -0.22696,0 -8.19224,-3.00673 -17.70061,-6.681623 -9.50837,-3.6748878 -17.46836,-6.6816709 -17.68885,-6.6817344 -0.2205,-6.35e-5 -0.40091,0.3217492 -0.40091,0.7151422 0,0.4451985 6.81171,3.353054 18.0407,7.7014012 9.92237,3.842375 18.28123,7.006326 18.57523,7.031006 0.29399,0.02471 3.84884,-9.12695 7.89967,-20.33693825 z"
       id="path2452"
       inkscape:connector-curvature="0" />
    <path
       style="opacity:1;fill:#ececec;fill-opacity:1;fill-rule:nonzero;stroke:#e6e6e6;stroke-width:0.53453898;stroke-linecap:butt;stroke-linejoin:round;stroke-miterlimit:4;stroke-dasharray:1.06907803, 1.06907803;stroke-dashoffset:0;stroke-opacity:1"
       d="M 98.294165,24.390888 C 92.657688,21.843437 87.910116,19.62199 87.744005,19.454335 87.432268,19.139703 97.835071,-4.4596117 98.657163,-5.3027488 c 0.561599,-0.5759714 22.451967,7.1901473 22.427447,7.9566611 -0.0475,1.4840426 -11.14176,26.2035337 -11.7949,26.2805597 -0.41107,0.04847 -5.35907,-1.996133 -10.995545,-4.543584 z"
       id="path2454"
       inkscape:connector-curvature="0" />
    <path
       style="opacity:1;fill:#ececec;fill-opacity:1;fill-rule:nonzero;stroke:#e6e6e6;stroke-width:0.53453898;stroke-linecap:butt;stroke-linejoin:round;stroke-miterlimit:4;stroke-dasharray:1.06907803, 1.06907803;stroke-dashoffset:0;stroke-opacity:1"
       d="m 55.150598,75.56186 c -4.96373,-2.306961 -9.274239,-4.040415 -9.578907,-3.852122 -0.322186,0.199125 -0.427107,0.02614 -0.250781,-0.413507 0.166739,-0.415724 5.058103,-13.023532 10.869697,-28.017353 5.811594,-14.993815 10.707307,-27.429206 10.879365,-27.634189 0.324543,-0.386667 17.094904,5.185913 17.840103,5.928043 0.232113,0.231155 -1.891512,6.436444 -4.719162,13.789527 L 75.049721,48.731507 66.138136,45.87162 c -4.901369,-1.572932 -8.971719,-2.859908 -9.045215,-2.859945 -0.0735,-3.7e-5 -0.133636,0.34697 -0.133636,0.771118 0,0.524986 2.773082,1.668134 8.68626,3.580733 4.777444,1.545257 8.744411,2.839948 8.815488,2.877095 0.09876,0.05159 -4.677981,13.76535 -10.072237,28.916773 -0.129509,0.363781 -3.756703,-1.047936 -9.238198,-3.595534 z"
       id="path2456"
       inkscape:connector-curvature="0" />
    <path
       style="opacity:1;fill:#ececec;fill-opacity:1;fill-rule:nonzero;stroke:#e6e6e6;stroke-width:0.53453898;stroke-linecap:butt;stroke-linejoin:round;stroke-miterlimit:4;stroke-dasharray:1.06907803, 1.06907803;stroke-dashoffset:0;stroke-opacity:1"
       d="m 170.01429,53.696953 c -8.49432,-3.489024 -12.77312,-5.507133 -12.66375,-5.972879 0.24127,-1.027409 10.90229,-27.163104 11.08012,-27.163104 0.20016,0 26.14025,10.229088 26.28537,10.365248 0.0997,0.09357 -2.31802,6.520296 -8.71926,23.177076 -1.0451,2.719467 -2.18219,4.926182 -2.52686,4.903804 -0.34467,-0.02238 -6.3997,-2.411942 -13.45562,-5.310145 z"
       id="path2458"
       inkscape:connector-curvature="0" />
    <path
       style="opacity:1;fill:#ececec;fill-opacity:1;fill-rule:nonzero;stroke:#e6e6e6;stroke-width:0.53453898;stroke-linecap:butt;stroke-linejoin:round;stroke-miterlimit:4;stroke-dasharray:1.06907803, 1.06907803;stroke-dashoffset:0;stroke-opacity:1"
       d="m 132.15762,124.36049 -17.45267,-24.00865 1.99211,-5.364489 1.99212,-5.364491 12.83362,-5.630534 c 8.24043,-3.615357 13.02035,-5.446877 13.35536,-5.117375 0.33518,0.329671 0.82216,0.114877 1.36193,-0.600715 0.83264,-1.103853 36.81769,-17.319191 37.32,-16.816885 0.35439,0.354388 -32.46014,85.375139 -33.27621,86.216939 -0.54661,0.56387 -3.96353,-3.83094 -18.12626,-23.3138 z"
       id="path2460"
       inkscape:connector-curvature="0" />
    <path
       style="opacity:1;fill:#ececec;fill-opacity:1;fill-rule:nonzero;stroke:#e6e6e6;stroke-width:0.53453898;stroke-linecap:butt;stroke-linejoin:round;stroke-miterlimit:4;stroke-dasharray:1.06907803, 1.06907803;stroke-dashoffset:0;stroke-opacity:1"
       d="m 150.32906,67.466774 c 1.59246,-4.18945 3.74248,-9.819439 4.77783,-12.511087 l 1.88246,-4.893903 11.05605,4.49345 c 6.08083,2.471399 11.64457,4.750181 12.36385,5.063961 1.17569,0.512874 -0.40344,1.322764 -15.63292,8.017632 -9.3174,4.095919 -17.03115,7.447126 -17.14168,7.447126 -0.11053,0 1.10195,-3.42773 2.69441,-7.617179 z"
       id="path2462"
       inkscape:connector-curvature="0" />
    <path
       style="opacity:1;fill:#ececec;fill-opacity:1;fill-rule:nonzero;stroke:#e6e6e6;stroke-width:0.53453898;stroke-linecap:butt;stroke-linejoin:round;stroke-miterlimit:4;stroke-dasharray:1.06907803, 1.06907803;stroke-dashoffset:0;stroke-opacity:1"
       d="m 119.6812,86.977445 c 0.13416,-0.220493 3.16893,-8.098266 6.74394,-17.506151 3.575,-9.40789 6.71838,-17.325392 6.98528,-17.594458 0.46555,-0.469323 18.16228,6.969437 18.16228,7.634452 0,0.27769 -5.94247,16.167533 -6.18343,16.534145 -0.13254,0.201676 -25.38702,11.332919 -25.71203,11.332919 -0.13199,0 -0.13021,-0.180409 0.004,-0.400907 z"
       id="path2464"
       inkscape:connector-curvature="0" />
    <path
       style="opacity:1;fill:#ececec;fill-opacity:1;fill-rule:nonzero;stroke:#e6e6e6;stroke-width:0.53453898;stroke-linecap:butt;stroke-linejoin:round;stroke-miterlimit:4;stroke-dasharray:1.06907803, 1.06907803;stroke-dashoffset:0;stroke-opacity:1"
       d="m 142.7528,53.602623 c -4.70394,-2.053669 -8.60459,-3.785272 -8.66811,-3.848004 -0.12335,-0.121836 13.75754,-36.810669 14.0515,-37.13979 0.31655,-0.354393 18.4036,7.061586 18.4036,7.545774 0,0.58194 -14.49258,36.344436 -14.92472,36.828862 -0.1703,0.190907 -4.15832,-1.333172 -8.86227,-3.386842 z"
       id="path2466"
       inkscape:connector-curvature="0" />
    <path
       style="opacity:1;fill:#ececec;fill-opacity:1;fill-rule:nonzero;stroke:#e6e6e6;stroke-width:0.53453898;stroke-linecap:butt;stroke-linejoin:round;stroke-miterlimit:4;stroke-dasharray:1.06907803, 1.06907803;stroke-dashoffset:0;stroke-opacity:1"
       d="m 186.57171,57.04326 c 4.71937,-12.130495 9.36773,-24.572119 9.36773,-25.073308 0,-0.35468 4.63317,1.233492 10.71462,3.672787 10.43973,4.187428 10.74239,4.352126 11.79715,6.419617 0.59539,1.167061 1.00561,2.197052 0.9116,2.288862 -0.23803,0.232469 -33.04681,14.696562 -33.33608,14.696562 -0.12918,0 0.11606,-0.902033 0.54498,-2.00452 z"
       id="path2468"
       inkscape:connector-curvature="0" />
    <path
       style="opacity:1;fill:#ececec;fill-opacity:1;fill-rule:nonzero;stroke:#e6e6e6;stroke-width:0.53453898;stroke-linecap:butt;stroke-linejoin:round;stroke-miterlimit:4;stroke-dasharray:1.06907803, 1.06907803;stroke-dashoffset:0;stroke-opacity:1"
       d="m 224.38791,34.87033 c -1.53915,-3.313202 -2.79669,-6.262889 -2.79453,-6.554856 0.002,-0.291973 1.62759,-4.343506 3.61207,-9.003411 l 3.60814,-8.472551 3.4745,-2.003044 c 1.91098,-1.1016721 4.84198,-2.7717274 6.51333,-3.711231 l 3.03883,-1.708187 2.17293,4.6369128 c 1.19511,2.5502972 2.17682,5.0245642 2.18159,5.4983592 0.005,0.473795 -1.69964,5.707147 -3.78754,11.62967 l -3.7962,10.768219 -4.95142,2.180071 c -2.72329,1.199039 -5.29384,2.311469 -5.71234,2.472061 -0.54805,0.210306 -1.54373,-1.393137 -3.55936,-5.732013 z"
       id="path2470"
       inkscape:connector-curvature="0" />
    <path
       style="opacity:1;fill:#ececec;fill-opacity:1;fill-rule:nonzero;stroke:#e6e6e6;stroke-width:0.53453898;stroke-linecap:butt;stroke-linejoin:round;stroke-miterlimit:4;stroke-dasharray:1.06907803, 1.06907803;stroke-dashoffset:0;stroke-opacity:1"
       d="m 226.9427,-3.2501166 c -7.20291,-2.7556354 -13.26975,-5.0802328 -13.48185,-5.1657673 -0.21211,-0.08554 1.89119,-6.2893571 4.67399,-13.7862681 2.7828,-7.49691 5.12123,-13.80862 5.1965,-14.026022 0.11222,-0.324115 16.08704,34.0388566 17.26806,37.14483211 0.19563,0.51449819 0.14956,0.91475449 -0.10239,0.88946039 -0.25196,-0.025294 -6.3514,-2.30059442 -13.55431,-5.0562351 z"
       id="path2472"
       inkscape:connector-curvature="0" />
    <path
       style="opacity:1;fill:#ececec;fill-opacity:1;fill-rule:nonzero;stroke:#e6e6e6;stroke-width:0.53453898;stroke-linecap:butt;stroke-linejoin:round;stroke-miterlimit:4;stroke-dasharray:1.06907803, 1.06907803;stroke-dashoffset:0;stroke-opacity:1"
       d="m 209.83745,24.293886 c -4.55694,-1.412515 -8.24063,-2.770134 -8.18597,-3.016927 0.0547,-0.246798 1.74452,-4.333668 3.75523,-9.081939 l 3.65585,-8.6332218 8.65661,3.3161869 c 4.76114,1.8239052 8.81432,3.4738889 9.00707,3.6666379 0.19274,0.192744 -1.18309,3.964247 -3.05742,8.381116 -2.81364,6.63039 -3.59427,8.022447 -4.47693,7.983517 -0.588,-0.02593 -4.79749,-1.202849 -9.35444,-2.61537 z"
       id="path2474"
       inkscape:connector-curvature="0" />
    <path
       style="opacity:1;fill:#ececec;fill-opacity:1;fill-rule:nonzero;stroke:#e6e6e6;stroke-width:0.53453898;stroke-linecap:butt;stroke-linejoin:round;stroke-miterlimit:4;stroke-dasharray:1.06907803, 1.06907803;stroke-dashoffset:0;stroke-opacity:1"
       d="m 187.20015,-8.3321009 c -8.48157,-3.4729151 -15.54951,-6.4428631 -15.70654,-6.5998931 -0.28128,-0.281279 5.66379,-16.891863 6.04575,-16.891863 0.56734,0 31.0308,11.406383 31.41331,11.762036 0.40082,0.372682 -5.19317,16.862769 -6.00688,17.7072237 -0.17854,0.1852824 -7.26408,-2.5045934 -15.74564,-5.9775036 z"
       id="path2476"
       inkscape:connector-curvature="0" />
    <path
       style="opacity:1;fill:#ececec;fill-opacity:1;fill-rule:nonzero;stroke:#e6e6e6;stroke-width:0.53453898;stroke-linecap:butt;stroke-linejoin:round;stroke-miterlimit:4;stroke-dasharray:1.06907803, 1.06907803;stroke-dashoffset:0;stroke-opacity:1"
       d="m 114.32938,-35.743495 -13.45633,-5.434795 -2.732539,-6.885395 c -1.502897,-3.786971 -2.66383,-6.939386 -2.579846,-7.005373 0.08399,-0.06598 2.509599,-1.227423 5.390255,-2.580984 l 5.23754,-2.461011 14.61436,5.647631 14.61435,5.647627 -3.06008,9.164145 c -1.93739,5.801995 -3.33731,9.196943 -3.81573,9.253543 -0.41561,0.04916 -6.811,-2.356252 -14.21198,-5.345388 z"
       id="path2478"
       inkscape:connector-curvature="0" />
    <path
       style="opacity:1;fill:#ececec;fill-opacity:1;fill-rule:nonzero;stroke:#e6e6e6;stroke-width:0.53453898;stroke-linecap:butt;stroke-linejoin:round;stroke-miterlimit:4;stroke-dasharray:1.06907803, 1.06907803;stroke-dashoffset:0;stroke-opacity:1"
       d="m 86.626204,-36.491017 c -4.997942,-1.926071 -9.183613,-3.584458 -9.30149,-3.685307 -0.117877,-0.100843 0.609912,-2.137696 1.617308,-4.526327 l 1.831636,-4.342972 6.344206,-2.881704 c 3.489314,-1.584939 6.403731,-2.881709 6.476486,-2.881709 0.242052,0 5.77179,14.043257 5.766239,14.643856 -0.01265,1.369357 -2.503688,7.268253 -3.050672,7.224178 -0.328104,-0.02646 -4.685776,-1.623943 -9.683713,-3.550015 z"
       id="path2480"
       inkscape:connector-curvature="0" />
    <path
       style="opacity:1;fill:#ececec;fill-opacity:1;fill-rule:nonzero;stroke:#e6e6e6;stroke-width:0.53453898;stroke-linecap:butt;stroke-linejoin:round;stroke-miterlimit:4;stroke-dasharray:1.06907803, 1.06907803;stroke-dashoffset:0;stroke-opacity:1"
       d="m 115.22404,34.555254 c 0,-2.642876 -0.0759,-2.786328 -1.87089,-3.536321 -1.02898,-0.429942 -1.87088,-0.919506 -1.87088,-1.087935 0,-0.168423 2.66831,-6.580843 5.92956,-14.249828 3.26126,-7.6689849 5.72683,-14.1355179 5.47903,-14.3700711 C 122.33983,0.78951523 98.046383,-7.8753719 97.806797,-7.6357811 97.5465,-7.375484 85.824395,18.886877 85.824395,19.209759 c 0,0.155173 0.408919,0.282136 0.908717,0.282136 0.623041,0 0.735748,0.172963 0.358526,0.550185 -0.377222,0.377222 -1.040998,0.294233 -2.111428,-0.26398 -0.858684,-0.447786 -1.887654,-0.815642 -2.286608,-0.817451 -0.39895,-0.0016 -0.609859,-0.303975 -0.468688,-0.671471 0.141171,-0.367495 2.933149,-6.830864 6.204389,-14.363038 3.271245,-7.5321794 5.947717,-13.939652 5.947717,-14.238838 0,-0.299185 -1.909181,-1.313555 -4.242621,-2.25417 l -4.242614,-1.710203 2.654072,-7.528878 c 1.459738,-4.140888 2.46688,-7.693136 2.238095,-7.893891 -0.464646,-0.407707 -10.412106,-4.262173 -10.999666,-4.262173 -0.205899,0 -0.374359,0.333693 -0.374359,0.741537 0,0.445368 1.92143,1.453568 4.81085,2.52431 2.645965,0.98052 4.81085,2.023454 4.81085,2.317629 0,1.340289 -4.557819,13.125391 -5.076164,13.125391 -0.770662,0 -12.707313,-4.783301 -13.26261,-5.314643 -0.558487,-0.5344 1.466882,-8.469386 2.930959,-11.4829 l 1.130316,-2.326524 1.739281,0.726715 c 1.626452,0.679577 1.721982,0.660548 1.472544,-0.293312 -0.146712,-0.561017 -1.024414,-1.28607 -1.95045,-1.611233 -1.434158,-0.503576 -1.779276,-0.44914 -2.328593,0.367284 -2.052039,3.049852 -1.649365,2.936404 -6.036844,1.700811 -2.204974,-0.620956 -4.249584,-1.316085 -4.543584,-1.544722 -0.293994,-0.228637 -4.262945,-1.924426 -8.819892,-3.768413 -4.556945,-1.843987 -8.455746,-3.496268 -8.664001,-3.671734 -0.208255,-0.175467 -0.18832,-0.626978 0.0443,-1.003369 0.324727,-0.525415 1.964336,-0.0961 7.060384,1.848697 3.650588,1.393169 6.757707,2.69177 6.904704,2.885778 0.146997,0.194009 3.482271,-1.332394 7.411709,-3.392006 5.565304,-2.917052 6.951673,-3.852634 6.272303,-4.23283 -0.641874,-0.359214 -2.457598,0.355589 -6.877172,2.707354 l -6.005031,3.195431 -4.229761,-9.415896 c -2.326368,-5.178748 -4.010166,-9.492292 -3.741772,-9.585658 0.268394,-0.09337 4.688858,-1.96723 9.823262,-4.16414 5.134398,-2.196909 9.502526,-3.817382 9.706954,-3.601048 0.40115,0.424524 6.882913,16.091435 6.882913,16.636524 0,0.181149 -1.082437,0.903594 -2.405422,1.605439 -1.322986,0.701839 -2.405428,1.48319 -2.405428,1.736333 0,0.638064 1.458002,0.575802 2.753619,-0.117586 1.560777,-0.835306 1.671595,-0.400812 0.571193,2.239438 -1.468781,3.524102 -0.935254,5.203635 2.019496,6.357335 1.642396,0.641286 2.092309,1.001654 1.419712,1.137147 -0.541544,0.109098 2.465726,1.492642 6.682825,3.074548 4.217098,1.581902 7.877344,3.066669 8.133878,3.299487 0.259091,0.23513 -0.273277,2.467583 -1.197594,5.022056 l -1.664022,4.598754 1.197594,0.52994 c 0.658675,0.29147 7.090887,2.874989 14.293797,5.741151 l 13.09621,5.211212 3.44501,6.7420596 3.44501,6.7420542 -6.30133,16.7690112 c -3.46573,9.222957 -6.39911,16.86924 -6.51861,16.991737 -0.11951,0.122497 -0.21728,-1.016852 -0.21728,-2.531882 z M 75.852609,-39.597728 c -0.17409,-0.45367 -0.43117,-0.710221 -0.571288,-0.570103 -0.140118,0.140118 -0.09621,0.511307 0.09758,0.824865 0.527081,0.852837 0.835152,0.687155 0.473704,-0.254762 z M 73.552602,15.778071 C 70.47807,14.661312 67.86478,13.4164 67.745284,13.011609 67.625788,12.606812 66.376282,9.6050402 64.968609,6.3410027 L 62.409194,0.40639328 65.591401,-8.8933615 c 1.750213,-5.1148565 3.374284,-9.4920535 3.609044,-9.7270935 0.234759,-0.235035 2.273379,0.306186 4.530264,1.202716 4.192577,1.665467 5.502302,2.017522 4.075599,1.095518 -0.712718,-0.460597 -0.712718,-0.518171 0,-0.518171 1.051994,0 2.25569,0.779674 2.130103,1.379739 -0.05465,0.261128 2.785612,1.633469 6.311688,3.049656 l 6.411055,2.5748827 -5.956437,13.8498737 C 82.637346,13.466533 80.491713,17.854886 79.944465,17.83609 79.503468,17.820956 76.627129,16.894824 73.552602,15.778071 Z"
       id="path2482"
       inkscape:connector-curvature="0" />
    <path
       style="opacity:1;fill:#ececec;fill-opacity:1;fill-rule:nonzero;stroke:#e6e6e6;stroke-width:0.53453898;stroke-linecap:butt;stroke-linejoin:round;stroke-miterlimit:4;stroke-dasharray:1.06907803, 1.06907803;stroke-dashoffset:0;stroke-opacity:1"
       d="m 115.2403,34.599793 c -0.0156,-2.688145 -0.0905,-2.830152 -1.88715,-3.58086 -1.02898,-0.429942 -1.87088,-0.918527 -1.87088,-1.085749 0,-0.167222 2.66478,-6.583172 5.92174,-14.25766 3.25695,-7.6744885 5.72251,-14.1337031 5.47903,-14.35381 C 122.3432,0.8337324 98.045785,-7.8778589 97.836907,-7.658313 97.583441,-7.3918935 85.824395,18.907668 85.824395,19.20815 c 0,0.156057 0.353261,0.283745 0.78503,0.283745 0.487955,0 0.665247,0.312155 0.468497,0.824881 -0.278569,0.725937 -0.42083,0.730938 -1.185936,0.04164 -0.478171,-0.430773 -1.530895,-0.948319 -2.339383,-1.150096 -0.808492,-0.201771 -1.469982,-0.449834 -1.469982,-0.551243 0,-0.10141 2.76624,-6.545131 6.147196,-14.3193826 3.380963,-7.774252 6.147203,-14.3733514 6.147203,-14.6646794 0,-0.291322 -1.937645,-1.310746 -4.305877,-2.265378 -3.414877,-1.376543 -4.233587,-1.914372 -3.956553,-2.599145 2.073571,-5.125413 5.00199,-14.216137 4.67314,-14.506871 -0.230865,-0.20411 -4.027895,-1.739535 -8.437838,-3.412051 -7.515421,-2.850309 -8.058515,-2.980701 -8.662982,-2.0799 -2.049208,3.053821 -1.68012,2.937684 -5.686187,1.78926 -2.012108,-0.576818 -4.730771,-1.567889 -6.041464,-2.202391 -1.310693,-0.634492 -2.530882,-1.005819 -2.71154,-0.825167 -0.180652,0.180652 -0.04784,0.328459 0.29517,0.328459 0.343,0 0.623633,0.35623 0.623633,0.791623 0,0.435398 0.601356,0.942557 1.336347,1.12703 1.578811,0.396256 1.529429,0.161374 0.534538,2.542482 -1.635771,3.914949 -0.615352,4.935167 1.199631,1.199388 l 1.145392,-2.35756 3.237436,0.867431 c 2.20526,0.590868 3.237437,1.133174 3.237437,1.700959 0,1.107615 -1.727883,6.913869 -3.343096,11.233896 -0.841269,2.250054 -1.172098,3.945451 -0.938773,4.810855 0.317267,1.176724 0.478478,0.969206 1.349629,-1.737254 0.544126,-1.690481 1.185355,-3.073601 1.424956,-3.073601 0.239601,0 5.596054,2.064491 11.903228,4.587764 l 11.467592,4.5877637 -1.221147,2.7621494 C 90.828063,-5.5380586 88.153771,0.63603045 85.556833,6.6629582 82.959889,12.689886 80.743564,17.732659 80.631672,17.869121 80.208863,18.384772 68.054264,13.850618 67.786691,13.077432 67.634074,12.636435 66.355915,9.591774 64.946336,6.3115228 L 62.38346,0.34742295 64.483935,-5.6157403 c 1.452012,-4.1222082 1.991471,-6.3974607 1.747393,-7.3699417 -0.295244,-1.176333 -0.718895,-0.37264 -2.586096,4.9059301 l -2.233015,6.3127201 -2.795947,-6.5144755 -2.795947,-6.5144697 2.748655,-5.81541 c 1.976798,-4.182364 2.612787,-6.058191 2.264807,-6.679993 -0.372538,-0.665692 -1.079828,0.438187 -3.074484,4.798419 -1.424856,3.114654 -2.751274,5.476574 -2.947603,5.248704 -0.740037,-0.858922 -10.271885,-23.185326 -10.010251,-23.446957 0.150557,-0.150558 3.488882,1.052201 7.418501,2.672795 3.929617,1.620594 6.723813,2.628519 6.20932,2.23983 -0.514493,-0.388684 -0.935445,-0.932011 -0.935445,-1.207384 0,-0.275378 -2.585831,-1.548289 -5.746293,-2.828692 -6.525477,-2.643674 -6.659218,-2.724356 -6.07717,-3.66613 0.330619,-0.534951 1.646599,-0.216778 5.857671,1.416246 4.579841,1.776026 5.431254,1.96669 5.431254,1.216247 0,-0.621988 -1.247341,-1.35092 -4.142677,-2.420922 -2.278473,-0.842036 -4.679473,-1.730708 -5.335555,-1.974839 l -1.192877,-0.443865 2.15325,-6.010915 c 1.184287,-3.306006 2.21661,-6.074283 2.294051,-6.151721 0.07744,-0.07744 1.569613,3.080908 3.31594,7.018559 2.278837,5.138362 3.421372,7.141141 4.047413,7.094834 0.910849,-0.06738 0.906632,-0.07851 -4.454133,-11.746849 -0.913447,-1.988222 -1.563652,-3.702891 -1.444903,-3.81037 0.844163,-0.764054 19.506948,-8.239051 19.801821,-7.931219 0.205179,0.214196 1.263041,2.554335 2.350802,5.200301 1.08776,2.64597 2.133631,4.931124 2.324163,5.078121 0.190532,0.146997 0.65341,1.349714 1.028621,2.672694 0.375216,1.322985 0.809016,2.784163 0.964009,3.247056 0.214815,0.641573 -1.917039,1.996837 -8.968391,5.701417 l -9.250193,4.859787 -0.633179,-1.425104 c -0.441971,-0.994749 -0.646287,-1.142619 -0.676593,-0.489659 -0.02387,0.514493 -0.283956,0.935445 -0.57795,0.935445 -1.168591,0 -0.496994,2.031682 0.777324,2.351516 0.999607,0.250883 3.36613,-0.761699 9.942322,-4.254103 4.746752,-2.52085 8.742627,-4.471194 8.879718,-4.334103 0.137092,0.137091 -0.495114,1.998509 -1.4049,4.136485 -0.909791,2.137971 -1.466914,4.05546 -1.238054,4.261078 0.228859,0.205618 4.745873,2.00162 10.03781,3.991112 5.291936,1.989498 9.831599,3.805989 10.088133,4.036648 0.258488,0.23241 -0.275426,2.46961 -1.197594,5.01814 l -1.664022,4.598749 1.197594,0.529945 c 0.658675,0.291465 7.090885,2.874984 14.293795,5.741151 l 13.09621,5.211212 3.45228,6.7564744 3.45228,6.7564793 -6.08069,16.2200533 c -3.34438,8.92103 -6.27371,16.580866 -6.50962,17.021863 -0.2643,0.494046 -0.43517,-0.272606 -0.44519,-1.99735 z m 18.70316,-74.025843 c 1.75818,-5.063194 3.19668,-9.481386 3.19668,-9.818201 0,-0.336814 -1.84701,-1.305729 -4.10446,-2.153147 l -4.10446,-1.540748 -6.55966,-13.36348 c -3.60781,-7.349913 -6.57166,-13.17507 -6.58631,-12.944803 -0.0147,0.230272 0.57469,1.605397 1.30968,3.055832 0.73499,1.450435 1.32478,2.945828 1.31063,3.323098 -0.0141,0.377269 -0.73962,-0.697177 -1.61218,-2.387653 -1.47,-2.847938 -2.68101,-3.767508 -3.40941,-2.588911 -0.16476,0.266578 0.13621,0.370729 0.66883,0.231447 0.80227,-0.209799 1.93748,1.747234 6.61788,11.408807 3.10721,6.414124 5.57099,11.749568 5.47503,11.856545 -0.0959,0.106976 -4.36103,-1.422162 -9.47796,-3.398086 l -9.30354,-3.592587 -2.05486,-4.214627 c -1.13017,-2.318046 -2.21816,-3.950414 -2.41774,-3.62749 -0.25688,0.415639 -0.48046,0.396875 -0.76544,-0.06423 -0.22142,-0.358251 -0.1439,-0.811233 0.17224,-1.006617 0.36969,-0.228489 0.39705,-0.636329 0.0767,-1.142953 -0.27398,-0.433234 -0.50183,-0.924168 -0.50633,-1.090962 -0.004,-0.166793 2.27697,-1.226783 5.06993,-2.355532 2.82492,-1.141661 5.07813,-2.366365 5.07813,-2.760155 0,-0.389334 0.61256,-0.861626 1.36124,-1.049533 0.74868,-0.187907 1.2469,-0.455983 1.10715,-0.59573 -0.28657,-0.286571 -35.987223,13.962231 -38.32115,15.294699 -0.673899,0.384731 -1.019249,-0.0026 -1.742672,-1.954482 -0.496216,-1.338871 -0.83964,-2.479992 -0.763165,-2.535835 0.07648,-0.05584 7.33451,-3.153029 16.128953,-6.882644 8.794448,-3.729614 16.251264,-7.106925 16.570714,-7.505128 0.31944,-0.398208 1.90379,-1.209262 3.52077,-1.802347 1.61698,-0.593085 4.16771,-1.565127 5.66827,-2.16009 l 2.72831,-1.081754 7.10617,16.268837 7.10615,16.268843 7.89078,2.535105 7.89078,2.535111 -3.56578,7.982516 -3.56578,7.982521 -5.03387,2.040086 c -2.76864,1.12205 -5.10656,2.040091 -5.19539,2.040091 -0.0888,0 1.27699,-4.142613 3.03517,-9.205812 z M 79.652428,-53.269241 c -0.556816,-1.434883 -1.199981,-2.608871 -1.429253,-2.608871 -0.229277,0 -0.416867,-0.451712 -0.416867,-1.003797 0,-0.55209 -0.368464,-1.885664 -0.818811,-2.963497 -0.450352,-1.077833 -0.69224,-2.164498 -0.537538,-2.41481 0.501073,-0.810757 23.412106,-9.728443 23.850471,-9.283345 0.23351,0.237098 1.49525,2.59597 2.80387,5.241935 l 2.37931,4.810855 -4.88513,2.314184 c -2.686807,1.272804 -5.486469,2.398569 -6.22146,2.501709 -0.734992,0.103135 -4.120918,1.498595 -7.524274,3.101012 l -6.187927,2.913496 z"
       id="path2484"
       inkscape:connector-curvature="0" />
    <path
       style="opacity:1;fill:#ececec;fill-opacity:1;fill-rule:nonzero;stroke:#e6e6e6;stroke-width:0.53453898;stroke-linecap:butt;stroke-linejoin:round;stroke-miterlimit:4;stroke-dasharray:1.06907803, 1.06907803;stroke-dashoffset:0;stroke-opacity:1"
       d="m 125.98079,183.20059 -6.05536,-12.12496 2.24006,-4.56454 2.24006,-4.56454 12.30017,-5.78244 c 6.76509,-3.18035 12.40093,-5.68168 12.52409,-5.55853 0.20379,0.2038 -15.92749,42.45742 -16.81354,44.04071 -0.22912,0.40942 -2.78555,-4.13728 -6.43548,-11.4457 z"
       id="path2488"
       inkscape:connector-curvature="0" />
    <ellipse
       style="opacity:1;fill:#e6e6e6;fill-opacity:1;fill-rule:nonzero;stroke:#b3b3b3;stroke-width:0.52916664;stroke-linecap:butt;stroke-linejoin:round;stroke-miterlimit:4;stroke-dasharray:none;stroke-dashoffset:0;stroke-opacity:1"
       id="path940"
       cx="1.2743711"
       cy="-237.98949"
       rx="12.294398"
       ry="12.027128" />
    <ellipse
       style="opacity:1;fill:#800000;fill-opacity:1;fill-rule:nonzero;stroke:#b3b3b3;stroke-width:0.52916664;stroke-linecap:butt;stroke-linejoin:round;stroke-miterlimit:4;stroke-dasharray:none;stroke-dashoffset:0;stroke-opacity:1"
       id="path942"
       cx="6.61976"
       cy="296.28226"
       rx="21.916101"
       ry="21.381561" />
  </g>
</svg>
